<?xml version="1.0" encoding="UTF-8" standalone="no"?>
<svg width="82" height="20" viewBox="0 0 82 20" fill="none" xmlns="http://www.w3.org/2000/svg">
  <path d="M11.408 19.2c6.144 0 10.944-4.752 10.944-10.8C22.352 2.352 17.552-2.4 11.408-2.4 5.264-2.4.464 2.352.464 8.4c0 6.048 4.8 10.8 10.944 10.8zm0-18.72c4.032 0 6.912 3.36 6.912 7.92 0 4.56-2.88 7.92-6.912 7.92-4.032 0-6.912-3.36-6.912-7.92 0-4.56 2.88-7.92 6.912-7.92zM34.123 19.2c6.144 0 10.944-4.752 10.944-10.8C45.067 2.352 40.267-2.4 34.123-2.4c-6.144 0-10.944 4.752-10.944 10.8 0 6.048 4.8 10.8 10.944 10.8zm0-18.72c4.032 0 6.912 3.36 6.912 7.92 0 4.56-2.88 7.92-6.912 7.92-4.032 0-6.912-3.36-6.912-7.92 0-4.56 2.88-7.92 6.912-7.92zM70.837 19.2c6.144 0 10.944-4.752 10.944-10.8C81.781 2.352 76.981-2.4 70.837-2.4c-6.144 0-10.944 4.752-10.944 10.8 0 6.048 4.8 10.8 10.944 10.8zm0-18.72c4.032 0 6.912 3.36 6.912 7.92 0 4.56-2.88 7.92-6.912 7.92-4.032 0-6.912-3.36-6.912-7.92 0-4.56 2.88-7.92 6.912-7.92z" fill="#000"/>
</svg>